<svg width="93" height="93" viewBox="0 0 93 93" fill="none" xmlns="http://www.w3.org/2000/svg">
<rect width="93" height="93" fill="#1E1E1E"/>
<rect width="390" height="844" transform="translate(-146 -119)" fill="white"/>
<g filter="url(#filter0_d_9_83)">
<rect x="4" width="85" height="85" rx="16" fill="url(#paint0_linear_9_83)"/>
</g>
<path d="M71.7804 41.7378C69.8164 41.6461 67.4347 41.7119 64.9444 41.8992C66.6046 41.258 68.1442 40.5878 69.4202 39.9355C73.8059 37.6929 73.4232 36.5081 68.5662 37.2888C66.9893 37.5424 65.1348 37.9719 63.1995 38.5135C65.1572 37.2729 66.9703 35.9964 68.3744 34.8389C72.1745 31.7054 71.5462 30.6306 66.9708 32.4383C66.0565 32.7995 65.052 33.251 64.0022 33.7632C65.2404 32.5061 66.358 31.2754 67.2538 30.1624C70.4805 26.1559 69.6206 25.1923 65.3335 28.0109C63.9693 28.9078 62.4227 30.0802 60.8438 31.3901C62.1582 29.4 63.3216 27.4399 64.1562 25.7603C66.4451 21.1534 65.3983 20.3976 61.8179 24.0722C61.082 24.8271 60.2962 25.714 59.4926 26.6806C60.1538 24.9296 60.7098 23.2555 61.1004 21.7947C62.4865 16.6058 61.2663 16.0573 58.3745 20.5694C57.4741 21.9746 56.5179 23.707 55.5863 25.5799C55.9879 23.1618 56.2614 20.8395 56.3471 18.9118C56.5848 13.5461 55.2749 13.273 53.4213 18.3019C53.0277 19.3702 52.641 20.5924 52.2743 21.9053C52.1692 19.9188 51.9943 18.0523 51.7487 16.4683C50.8912 10.9417 49.5021 10.9417 48.6456 16.4683C48.4283 17.8694 48.2669 19.4912 48.1598 21.2222C48.1259 21.5042 48.095 21.7962 48.0656 22.0922C47.4517 19.7319 46.7657 17.5172 46.0681 15.7221C44.0422 10.5094 42.6854 10.8083 43.0377 16.3897C43.1269 17.8048 43.3182 19.4236 43.5858 21.1366C43.66 21.8945 43.7622 22.7026 43.8857 23.5392C43.0571 21.8889 42.2111 20.3668 41.4129 19.1192C38.7154 14.905 37.5774 15.4168 38.8718 20.2622C39.246 21.6633 39.7846 23.2746 40.4238 24.9577C39.0875 23.2736 37.7467 21.7341 36.5444 20.5337C33.0033 16.9985 32.0024 17.7429 34.3088 22.1963C34.8554 23.2516 35.5395 24.421 36.3113 25.6373C34.7676 24.3602 33.2589 23.2183 31.9237 22.3379C27.5948 19.4839 26.7289 20.4565 29.989 24.5108C30.8958 25.6383 32.0264 26.8854 33.279 28.1599C31.385 27.1764 29.551 26.3243 27.9701 25.7184C23.1285 23.8619 22.4918 24.9985 26.5481 28.2565C27.5491 29.0607 28.7444 29.9186 30.0469 30.7832C27.9592 30.1977 25.9607 29.7319 24.2587 29.4548C18.9503 28.5909 18.5352 29.8863 23.3309 32.3482C24.6339 33.0169 26.1875 33.703 27.8656 34.3647C25.733 34.2461 23.7136 34.2232 22.0151 34.3179C16.6454 34.6158 16.5183 35.9701 21.7316 37.3428C23.0325 37.6851 24.5437 37.9965 26.1615 38.2661C23.878 38.6054 21.7295 39.0244 19.9587 39.4988C14.5537 40.9462 14.7021 42.3553 20.2896 42.6463C21.706 42.72 23.3364 42.7145 25.0688 42.6423C25.1849 42.6443 25.305 42.6443 25.4236 42.6453C23.3977 43.4285 21.5163 44.2522 19.9757 45.0508C15.0086 47.6267 15.4565 48.971 20.9762 48.0532C22.3753 47.8206 23.9662 47.4648 25.6428 47.0214C26.5038 46.847 27.4251 46.6297 28.3797 46.3791C26.6134 47.5087 24.9876 48.6547 23.6966 49.7054C19.7933 52.8828 20.4236 53.9829 25.1042 52.1634C26.4186 51.6522 27.9133 50.9646 29.4689 50.1709C28.0703 51.5819 26.8078 52.9736 25.8222 54.2152C22.6937 58.1573 23.5456 59.0966 27.7255 56.3128C28.6931 55.6686 29.7539 54.8808 30.8521 54.0024C29.6942 55.7712 28.6712 57.4927 27.91 58.995C25.5328 63.6846 26.5926 64.4613 30.2772 60.7303C31.3744 59.6192 32.5802 58.2316 33.7959 56.7104C33.0181 58.7447 32.3669 60.7053 31.9349 62.3805C30.622 67.4716 31.8243 68.0023 34.62 63.5663C35.2164 62.6202 35.8372 61.521 36.4575 60.3326C36.1257 62.3959 35.8945 64.3565 35.8053 66.0267C35.5123 71.502 36.8447 71.7875 38.7814 66.6655C39.3902 65.0551 39.9862 63.1019 40.5263 61.0108C40.6384 63.4074 40.8497 65.6799 41.1576 67.5499C42.049 72.9599 43.4117 72.9524 44.2014 67.5335C44.4869 65.5744 44.6583 63.1758 44.7186 60.6561C45.1949 62.4881 45.7186 64.1986 46.2532 65.6137C47.99 70.2095 49.1848 69.953 48.9213 65.0407C48.8346 63.4274 48.6009 61.5126 48.2656 59.5055C49.2626 61.5294 50.3039 63.4139 51.2725 64.8986C53.9577 69.0132 55.0688 68.5059 53.7549 63.7651C53.5077 62.8727 53.1913 61.8936 52.8236 60.8653C53.9238 62.2295 55.0105 63.4717 56.0045 64.4801C59.5805 68.1079 60.6079 67.3535 58.299 62.795C57.5282 61.2733 56.4818 59.52 55.2985 57.7243C57.1405 59.2734 58.9701 60.668 60.5522 61.6944C64.8247 64.4681 65.6658 63.51 62.4306 59.5553C61.8233 58.8129 61.1153 58.0177 60.338 57.1976C61.9259 58.0073 63.4501 58.7098 64.7945 59.235C69.7118 61.1562 70.3715 59.9998 66.2683 56.6521C64.905 55.54 63.1867 54.3263 61.3207 53.1305C63.7317 53.8255 66.0671 54.3771 68.0083 54.6815C73.2235 55.5002 73.6191 54.2286 68.8922 51.8419C67.9844 51.3835 66.952 50.9177 65.8419 50.4577C67.6964 50.5499 69.4447 50.5658 70.9469 50.4906C76.4233 50.2156 76.5658 48.834 71.2648 47.405C69.5329 46.9381 67.4338 46.5241 65.2016 46.1877C67.7581 45.822 70.1816 45.3537 72.1352 44.8191C77.4232 43.3732 77.2653 41.9936 71.781 41.7379L71.7804 41.7378ZM46.9433 46.1253C44.8013 46.5972 42.6823 45.2429 42.2105 43.1009C42.0944 42.5748 42.0899 42.0506 42.1791 41.5514C42.5593 39.7542 44.1532 38.405 46.0635 38.405C48.2567 38.405 50.0351 40.1832 50.0351 42.3766C50.0351 42.6167 50.0102 42.8509 49.9693 43.0796C49.6524 44.5525 48.5108 45.7801 46.9433 46.1253Z" fill="white" stroke="white" stroke-width="0.390625"/>
<defs>
<filter id="filter0_d_9_83" x="0" y="0" width="93" height="93" filterUnits="userSpaceOnUse" color-interpolation-filters="sRGB">
<feFlood flood-opacity="0" result="BackgroundImageFix"/>
<feColorMatrix in="SourceAlpha" type="matrix" values="0 0 0 0 0 0 0 0 0 0 0 0 0 0 0 0 0 0 127 0" result="hardAlpha"/>
<feOffset dy="4"/>
<feGaussianBlur stdDeviation="2"/>
<feComposite in2="hardAlpha" operator="out"/>
<feColorMatrix type="matrix" values="0 0 0 0 0 0 0 0 0 0 0 0 0 0 0 0 0 0 0.25 0"/>
<feBlend mode="normal" in2="BackgroundImageFix" result="effect1_dropShadow_9_83"/>
<feBlend mode="normal" in="SourceGraphic" in2="effect1_dropShadow_9_83" result="shape"/>
</filter>
<linearGradient id="paint0_linear_9_83" x1="46.5" y1="0" x2="46.5" y2="85" gradientUnits="userSpaceOnUse">
<stop stop-color="#BD61DE"/>
<stop offset="0.9999" stop-color="#A6FADC"/>
<stop offset="1" stop-color="white"/>
</linearGradient>
</defs>
</svg>
